<?xml version="1.0" encoding="UTF-8"?>
<svg xmlns="http://www.w3.org/2000/svg" id="Layer_1" viewBox="0 0 898.96733 872.31797">
  <defs>
    <style>
      .cls-1 {
        fill: #202227;
      }
      .cls-2 {
        fill: #77bb21;
      }
    </style>
  </defs>
  <title>snek</title>
  <g>
    <path class="cls-1" d="M446.22326,940.52765c3.26446,2.06651,6.68732,3.922,9.76745,6.234C474.769,960.85763,492.909,975.881,512.299,989.0703c62.338,42.4029,130.9393,67.76106,206.68266,70.24419,125.43,4.112,229.04192-41.95918,308.27987-139.59372,41.35949-50.9617,65.72518-110.04835,73.99461-175.30226,11.712-92.41978-9.32765-177.1377-63.67535-252.63874-49.97568-69.42739-117.53308-114.12419-200.77653-134.11434-71.252-17.11053-141.09446-11.30038-208.86773,16.56412a329.86663,329.86663,0,0,0-139.72436,107.543c-35.00309,46.15768-56.814,97.95672-64.964,155.24923-8.00964,56.30572-2.01792,111.23689,18.43315,164.46183,12.24,31.85505-1.61894,68.1946-31.65267,83.241-31.31425,15.68788-68.62043,5.6977-86.6734-24.03845-4.97131-8.18852-8.03048-17.70667-10.96861-26.93274A455.34391,455.34391,0,0,1,291.334,675.42189c3.07482-73.81363,23.12255-142.83656,59.52886-206.92287,36.95191-65.0467,87.00738-118.0512,150.20931-158.28827,55.15454-35.11375,115.116-57.71254,179.93648-66.67583,108.79079-15.04348,210.11316,6.51627,302.961,64.97989,83.299,52.451,142.258,125.39193,177.36882,217.46248A429.1876,429.1876,0,0,1,1189.0504,707.073q-6.93852,113.09592-68.26848,208.66079a420.70408,420.70408,0,0,1-154.01336,143.711,415.32757,415.32757,0,0,1-150.38038,48.54087c-76.29975,9.34845-149.67343-1.51843-219.66847-33.3743-49.78809-22.65932-93.40795-53.92352-128.64547-96.11574-7.01641-8.40135-12.90014-17.77694-18.96073-26.93192-1.95551-2.95384-2.80472-6.64007-4.16-9.99124Q445.58838,941.05,446.22326,940.52765Z" transform="translate(-290.9196 -238.90051)"></path>
    <path class="cls-2" d="M540.83273,707.02153c-.44112-1.0568-.28447-2.36313-.46049-4.10208H985.43756c13.13929,26.96662,26.04261,53.44891,39.60041,81.27434H712.31319c6.10355,19.1619,13.93417,36.31375,20.65841,53.86723,6.69572,17.479,13.43165,34.94251,20.67848,53.7872-16.30037.68046-31.39635.195-47.19474.18981" transform="translate(-290.9196 -238.90051)"></path>
    <path class="cls-2" d="M805.17417,606.626c-14.03593-35.61307-27.77066-70.46192-41.87434-106.24683H805.4921q85.09408,91.92845,170.14408,183.87023c.92909,1.00486,1.40167,2.43184,2.70815,4.77553H531.47527c-12.86145-26.71533-25.54429-53.05961-38.812-80.61882" transform="translate(-290.9196 -238.90051)"></path>
  </g>
</svg>