<svg
    fill="var(--chakra-colors-pink-500)"
    version="1.1"
    id="Ebene_1"
    xmlns="http://www.w3.org/2000/svg"
    xmlnsXlink="http://www.w3.org/1999/xlink"
    x="0px"
    y="0px"
    viewBox="0 0 1112 475"
    enableBackground="new 0 0 1112 475;"
    xmlSpace="preserve">
    <style type="text/css">
        .st0{fill-rule:evenodd;clip-rule:evenodd;}
        .st1{fill:#FFFFFF;}
        .st2{fill:none;}
        .st3{fill:#C1C1C1;}
</style>
    <g id="layer1" transform="translate(-41.732056,-64.283038)">
        <path
            id="Fill_1"
            className="st0"
            d="M467,114.2c-44.8-44.6-109.2-49.6-187.9-49.6c-78.8,0-143.2,5-188,49.8S41.8,223.5,41.8,302.2
S46.3,445.3,91.1,490s109.2,49.3,188,49.3s143.2-4.5,188-49.3s49.3-109.1,49.3-187.9C516.5,223.4,511.9,158.9,467,114.2L467,114.2z
"
        />
    </g>
    <path
        className="st1"
        d="M115.9,344.8c6.1,2.2,9.4,5.7,12.9,8.7c29.6,24.4,63.4,38.9,101.9,39.7c72.8,1.6,136.2-46.3,149.9-117.8
c11.6-60.2-8.1-110.1-58-145.8c-60.1-43-143.5-29.9-188,28.6c-29.3,38.5-35.7,81.5-20.3,127.4c3.6,10.9,3.8,20.7-3.6,29.9
c-6.3,7.8-14.7,10.8-24.5,9.5c-11-1.5-18.5-7.9-22.1-18.3c-5.3-15.4-8.9-31.3-9.8-47.5C51,199.9,70,148.8,114,108.6
c39.7-36.4,87.2-52.9,141.3-47.5c80.5,8.1,144.1,64.6,159.8,142.9c19.4,96.8-40.6,189-136.9,207c-60.2,11.2-113.3-5.1-154.4-53
c-2.1-2.5-3.8-5.4-5.6-8.1C117.5,348.7,117.1,347.4,115.9,344.8L115.9,344.8z"
    />
    <g>
        <rect
            x="542.8"
            y="132.9"
            className="st2"
            width="582.2"
            height="209.3"
        />
        <path
            className="st3"
            d="M542.8,366.5c11.2,0,17.4-7.9,17.4-23.2V194.9h32.7v151.5c0,31.8-17.7,49.7-47.7,49.7c-2.6,0-5.9,0-9.7-0.6
l2.6-29.7C539.9,366.2,541.3,366.5,542.8,366.5z M597.5,149c0,11.8-9.7,21.2-21.2,21.2s-20.9-9.4-20.9-21.2
c0-11.2,9.4-20.9,20.9-20.9S597.5,137.9,597.5,149z"
        />
        <path
            className="st3"
            d="M772.9,194.9v143.9h-33v-25.3c-10.3,17.9-28,28.2-50.9,28.2c-38.3,0-68.9-33.5-68.9-75
c0-41.5,30.6-74.7,68.9-74.7c23,0,40.6,10.3,50.9,28.2v-25.3H772.9z M739.9,266.7c0-24.7-18.8-43.5-43.8-43.5
c-24.4,0-43.8,19.4-43.8,43.5c0,24.4,19.4,43.8,43.8,43.8C721.1,310.6,739.9,291.7,739.9,266.7z"
        />
        <path
            className="st3"
            d="M942.4,274.7H832.9c3.5,23.2,19.4,37.4,42.7,37.4c16.2,0,30.9-7.1,37.7-18.2l26.2,16.8
c-10.6,19.4-34.7,31.2-64.4,31.2c-41.5,0-74.7-32.7-74.7-75.6c0-41.8,32.7-74.1,74.1-74.1c38.8,0,69.1,30,69.1,68.6
C943.5,264.4,943.2,270.3,942.4,274.7z M909.1,249.7c-1.8-17.9-16.8-30.6-36.5-30.6s-33.5,11.8-38.5,30.6H909.1z"
        />
        <path
            className="st3"
            d="M1106.8,256.7v82.1h-33v-78c0-22.7-13.8-37.4-34.7-37.4c-21.5,0-35.6,14.7-35.6,37.4v78h-32.7V194.9h32.7v22.7
c9.1-16.2,24.4-25.6,43.5-25.6C1083.9,192,1106.8,216.7,1106.8,256.7z"
        />
    </g>
    <g transform="translate(0.000000,860.000000) scale(0.100000,-0.100000)">
        <path
            className="st1"
            d="M2046.4,5333.6c118,107.8,236.6,168.3,394.4,201.2c84.8,17.4,162.4,25.5,301.2,30.1c56.2,2.2,102.8,4,103.1,4
c0.3,0.3,5.6,23.3,11.8,51.2c54,243.1,175.5,656.2,323,1096.2c17.7,53.7,32,98.1,31.7,98.4c-0.6,0.6-144.4-142.5-319.5-318
l-318.9-318.9l5.3-19.3c13.7-52.2-19.9-114.9-76.1-141.6c-19.9-9.3-23.3-9.9-55.6-9.9c-33.2,0-34.8,0.3-57.8,11.8
c-83.8,41.3-101.9,148.4-36.3,214.3c32.3,32.3,77,46,117.7,36.3l16.1-4l318,318c174.8,174.8,317.4,318,317.1,318.6
c-0.6,0.3-60.2-18.9-132.6-42.9c-450.9-148.4-832.5-260.5-1052.7-308.7c-28.3-6.2-53.4-11.8-56.2-12.7c-4.3-1.2-5.3-12.7-6.8-93.8
c-6.8-334.8-66.1-521.7-219.9-693.1l-28.6-31.7l201.5-201.2l201.5-201.5L2046.4,5333.6z"
        />
    </g>
    <g></g>
    <g></g>
    <g></g>
    <g></g>
    <g></g>
    <g></g>
    <g></g>
    <g></g>
    <g></g>
    <g></g>
    <g></g>
    <g></g>
    <g></g>
    <g></g>
    <g></g>
</svg>